<svg xmlns="http://www.w3.org/2000/svg" xmlns:xlink="http://www.w3.org/1999/xlink" version="1.1" x="0px" y="0px" viewBox="0 0 100 125" enable-background="new 0 0 100 100" xml:space="preserve"><polygon points="59.441,55.058 62.727,53.33 66.014,55.058 65.386,51.398 68.045,48.806 64.371,48.272 62.727,44.942 61.084,48.272   57.409,48.806 60.068,51.398 "/><polygon points="75.455,44.942 73.811,48.272 70.137,48.806 72.796,51.398 72.168,55.058 75.455,53.33 78.741,55.058 78.114,51.398   80.773,48.806 77.098,48.272 "/><polygon points="21.259,55.058 24.545,53.33 27.832,55.058 27.204,51.398 29.863,48.806 26.189,48.272 24.545,44.942 22.902,48.272   19.227,48.806 21.886,51.398 "/><polygon points="33.986,55.058 37.273,53.33 40.559,55.058 39.932,51.398 42.591,48.806 38.916,48.272 37.273,44.942 35.629,48.272   31.955,48.806 34.614,51.398 "/><polygon points="46.713,55.058 50,53.33 53.287,55.058 52.659,51.398 55.318,48.806 51.643,48.272 50,44.942 48.357,48.272   44.682,48.806 47.341,51.398 "/><text x="0" y="115" fill="#000000" font-size="5px" font-weight="bold" font-family="'Helvetica Neue', Helvetica, Arial-Unicode, Arial, Sans-serif">Created by Alina Oleynik</text><text x="0" y="120" fill="#ffe234" font-size="5px" font-weight="bold" font-family="'Helvetica Neue', Helvetica, Arial-Unicode, Arial, Sans-serif">from the Noun Project</text></svg>