<?xml version="1.0" standalone="no"?>
<!DOCTYPE svg PUBLIC "-//W3C//DTD SVG 20010904//EN"
 "http://www.w3.org/TR/2001/REC-SVG-20010904/DTD/svg10.dtd">
<svg version="1.0" xmlns="http://www.w3.org/2000/svg"
 width="472.000000pt" height="472.000000pt" viewBox="0 0 472.000000 472.000000"
 preserveAspectRatio="xMidYMid meet">
<metadata>
Created by potrace 1.14, written by Peter Selinger 2001-2017
</metadata>
<g transform="translate(0.000000,472.000000) scale(0.100000,-0.100000)"
fill="#000000" stroke="none">
<path d="M1890 4665 c-7 -8 -16 -13 -20 -10 -5 3 -12 0 -15 -6 -4 -5 -21 -9
-39 -8 -17 2 -36 0 -42 -4 -6 -3 -26 -9 -44 -12 -19 -3 -40 -10 -46 -16 -7 -5
-20 -12 -30 -14 -65 -14 -139 -37 -144 -45 -7 -12 -80 -42 -80 -34 0 4 -7 1
-15 -6 -8 -7 -15 -9 -15 -5 0 4 -6 2 -13 -4 -8 -6 -17 -8 -20 -4 -4 3 -9 -2
-13 -11 -3 -9 -14 -16 -24 -16 -11 0 -22 -5 -25 -10 -4 -6 -23 -19 -44 -30
-29 -14 -41 -16 -50 -7 -8 8 -11 8 -11 -1 0 -7 -7 -12 -15 -12 -8 0 -19 -9
-25 -20 -6 -11 -15 -18 -19 -16 -4 3 -24 -9 -43 -27 -58 -53 -77 -67 -93 -67
-8 0 -15 -4 -15 -10 0 -5 -5 -10 -11 -10 -7 0 -34 -22 -61 -50 -27 -27 -55
-50 -62 -50 -7 0 -57 -43 -111 -95 -53 -52 -101 -95 -106 -95 -5 0 -9 -6 -9
-13 0 -7 -9 -18 -20 -25 -11 -7 -20 -18 -20 -25 0 -7 -16 -30 -35 -51 -19 -21
-53 -66 -76 -100 -23 -33 -53 -73 -67 -88 -14 -16 -22 -28 -18 -28 10 0 -51
-87 -64 -92 -6 -2 -12 -10 -13 -19 -2 -8 -13 -33 -27 -54 -13 -22 -25 -43 -26
-47 -1 -5 -3 -11 -4 -15 -2 -5 -4 -12 -4 -18 -1 -5 -15 -30 -31 -55 -24 -38
-50 -102 -59 -145 -1 -5 -5 -16 -9 -22 -5 -7 -5 -13 -2 -13 4 0 -3 -16 -15
-35 -11 -19 -20 -40 -19 -47 4 -22 -13 -92 -27 -113 -14 -21 -34 -115 -60
-280 -3 -22 -9 -44 -13 -50 -9 -13 -7 -520 3 -565 13 -61 17 -84 22 -129 3
-24 10 -55 15 -68 5 -14 7 -28 4 -33 -3 -5 -1 -11 4 -15 6 -3 8 -12 4 -20 -3
-8 0 -15 6 -15 6 0 10 -3 9 -7 -1 -5 3 -18 10 -31 10 -18 10 -22 0 -22 -10 0
-10 -2 -1 -8 7 -4 15 -19 17 -32 2 -14 5 -26 7 -27 1 -2 2 -6 3 -10 1 -5 5
-14 10 -21 4 -7 20 -49 36 -93 15 -44 31 -83 34 -86 3 -4 6 -15 6 -25 0 -10 5
-18 10 -18 6 0 10 -6 10 -13 0 -22 100 -209 162 -302 33 -49 60 -94 61 -99 1
-5 13 -22 27 -37 14 -16 50 -59 80 -96 75 -92 230 -246 318 -317 39 -32 72
-66 73 -75 0 -11 2 -12 6 -3 4 10 8 10 19 1 8 -6 11 -15 8 -20 -3 -5 3 -6 12
-2 10 3 22 0 28 -8 27 -35 277 -176 421 -236 146 -62 300 -113 340 -113 12 0
25 -3 29 -7 3 -4 17 -8 29 -10 12 -2 54 -11 92 -20 97 -24 799 -31 855 -10 19
8 41 12 48 10 7 -3 27 2 45 10 18 8 55 18 82 22 28 4 64 13 80 21 42 18 185
64 202 64 7 0 16 6 19 14 3 8 17 17 32 21 36 9 211 94 241 116 13 10 27 17 31
14 4 -3 10 2 14 10 3 8 14 15 24 15 11 0 25 7 32 15 7 8 30 25 51 37 22 12 39
25 39 30 0 4 7 8 15 8 7 0 18 6 22 13 4 7 24 24 43 37 19 14 55 44 80 67 25
24 48 43 52 43 9 0 157 153 205 212 21 27 44 48 50 48 7 0 19 14 28 30 9 17
19 30 23 30 4 0 25 27 47 60 22 33 43 60 47 60 11 0 46 73 41 86 -2 6 3 17 12
24 8 7 15 19 15 27 0 10 6 13 16 9 12 -4 15 -2 11 9 -4 8 -2 17 3 20 5 3 16
29 25 58 10 28 32 80 51 114 18 35 36 75 38 89 3 14 15 45 27 67 11 23 23 57
25 77 3 19 11 53 19 76 13 40 38 138 50 200 37 197 40 224 39 489 0 243 -2
281 -23 380 -12 61 -25 124 -28 140 -2 17 -7 37 -10 45 -4 8 -7 17 -8 20 -1 3
-10 22 -19 44 -9 21 -15 40 -12 43 3 3 -1 18 -9 34 -9 16 -14 32 -13 36 3 10
-43 126 -52 133 -4 3 -13 23 -21 45 -12 34 -48 102 -135 254 -31 55 -125 194
-148 219 -11 13 -21 27 -21 30 0 4 -2 6 -5 5 -3 -1 -21 21 -40 48 -19 27 -40
56 -47 63 -7 8 -10 16 -8 20 3 3 2 4 -2 1 -3 -3 -43 30 -88 72 -44 43 -105 98
-135 123 -82 67 -121 106 -114 113 4 4 -3 5 -14 2 -14 -2 -28 4 -39 19 -20 25
-96 76 -113 76 -6 0 -33 16 -61 35 -28 19 -56 35 -63 35 -6 0 -22 10 -36 23
-14 12 -34 23 -45 24 -22 2 -126 44 -147 59 -12 9 -50 22 -163 55 -22 6 -46
16 -52 22 -7 5 -13 7 -13 3 0 -3 -11 -1 -26 4 -14 6 -38 12 -54 15 -16 3 -42
10 -57 17 -15 6 -45 11 -65 9 -22 -1 -38 3 -38 8 0 8 -140 11 -444 11 -381 0
-445 -2 -456 -15z"/>
</g>
</svg>
